<svg width="24" height="24" viewBox="0 0 24 24" fill="none" xmlns="http://www.w3.org/2000/svg">
<path d="M21.7 13.35L20.7 14.35L18.65 12.3L19.65 11.3C19.7528 11.1992 19.891 11.1428 20.035 11.1428C20.179 11.1428 20.3172 11.1992 20.42 11.3L21.7 12.58C21.91 12.79 21.91 13.14 21.7 13.35ZM12 18.94L18.06 12.88L20.11 14.93L14.06 21H12V18.94ZM12 14C7.58 14 4 15.79 4 18V20H10V18.11L14 14.11C13.34 14.03 12.67 14 12 14ZM12 4C10.9391 4 9.92172 4.42143 9.17157 5.17157C8.42143 5.92172 8 6.93913 8 8C8 9.06087 8.42143 10.0783 9.17157 10.8284C9.92172 11.5786 10.9391 12 12 12C13.0609 12 14.0783 11.5786 14.8284 10.8284C15.5786 10.0783 16 9.06087 16 8C16 6.93913 15.5786 5.92172 14.8284 5.17157C14.0783 4.42143 13.0609 4 12 4Z" fill="#131B23"/>
</svg>
