<svg width="24" height="24" viewBox="0 0 24 24" fill="none" xmlns="http://www.w3.org/2000/svg">
<path d="M8.87495 21.1L17.3 12.7C17.4 12.6 17.4706 12.4917 17.512 12.375C17.554 12.2583 17.575 12.1333 17.575 12C17.575 11.8667 17.554 11.7417 17.512 11.625C17.4706 11.5083 17.4 11.4 17.3 11.3L8.87495 2.875C8.64162 2.64167 8.34995 2.525 7.99995 2.525C7.64995 2.525 7.34995 2.65 7.09995 2.9C6.84995 3.15 6.72495 3.44167 6.72495 3.775C6.72495 4.10833 6.84995 4.4 7.09995 4.65L14.45 12L7.09995 19.35C6.86662 19.5833 6.74995 19.8707 6.74995 20.212C6.74995 20.554 6.87495 20.85 7.12495 21.1C7.37495 21.35 7.66662 21.475 7.99995 21.475C8.33328 21.475 8.62495 21.35 8.87495 21.1Z" fill="#000"/>
</svg>
