<svg width="24" height="24" viewBox="0 0 24 24" fill="none" xmlns="http://www.w3.org/2000/svg">
<path d="M10.875 19.3001L4.275 12.7001C4.175 12.6001 4.104 12.4917 4.062 12.3751C4.02 12.2584 3.99933 12.1334 4 12.0001C4 11.8667 4.021 11.7417 4.063 11.6251C4.105 11.5084 4.17567 11.4001 4.275 11.3001L10.875 4.70006C11.0583 4.51673 11.2877 4.42106 11.563 4.41306C11.8383 4.40506 12.0757 4.50073 12.275 4.70006C12.475 4.88339 12.5793 5.11273 12.588 5.38806C12.5967 5.66339 12.5007 5.90073 12.3 6.10006L7.4 11.0001H18.575C18.8583 11.0001 19.096 11.0961 19.288 11.2881C19.48 11.4801 19.5757 11.7174 19.575 12.0001C19.575 12.2834 19.4793 12.5211 19.288 12.7131C19.0967 12.9051 18.859 13.0007 18.575 13.0001H7.4L12.3 17.9001C12.4833 18.0834 12.5793 18.3167 12.588 18.6001C12.5967 18.8834 12.5007 19.1167 12.3 19.3001C12.1167 19.5001 11.8833 19.6001 11.6 19.6001C11.3167 19.6001 11.075 19.5001 10.875 19.3001Z" fill="black"/>
</svg>
