<svg width="24" height="24" viewBox="0 0 24 24" fill="none" xmlns="http://www.w3.org/2000/svg">
<circle cx="12" cy="12" r="12" fill="white"/>
<path d="M12 14.4C13.3255 14.4 14.4 13.3255 14.4 12C14.4 10.6745 13.3255 9.59998 12 9.59998C10.6745 9.59998 9.59998 10.6745 9.59998 12C9.59998 13.3255 10.6745 14.4 12 14.4Z" fill="#3185FC"/>
<path d="M9.75 4.5L8.3775 6H6C5.175 6 4.5 6.675 4.5 7.5V16.5C4.5 17.325 5.175 18 6 18H18C18.825 18 19.5 17.325 19.5 16.5V7.5C19.5 6.675 18.825 6 18 6H15.6225L14.25 4.5H9.75ZM12 15.75C9.93 15.75 8.25 14.07 8.25 12C8.25 9.93 9.93 8.25 12 8.25C14.07 8.25 15.75 9.93 15.75 12C15.75 14.07 14.07 15.75 12 15.75Z" fill="#3185FC"/>
</svg>
