<svg width="80" height="80" viewBox="0 0 80 80" fill="none" xmlns="http://www.w3.org/2000/svg">
<circle cx="40" cy="40" r="40" fill="#E50404"/>
<g clip-path="url(#clip0_260_61)">
<path d="M21.3901 47.2753C23.3228 45.3426 25.507 43.7869 27.8169 42.6084C28.1828 42.4278 28.4903 42.1477 28.7043 41.8003C28.9183 41.4529 29.0301 41.0523 29.0268 40.6443L28.3983 35.0817C34.9665 32.7561 43.1376 32.5989 49.9572 34.9874L49.5015 40.66C49.5172 41.5242 50.0043 42.2627 50.7272 42.6399C53.0528 43.8027 55.2212 45.374 57.154 47.3068C58.0025 48.1553 59.4167 48.1553 60.2653 47.3068L65.7021 41.8699C66.5506 41.0214 67.1949 39.6229 66.0164 38.4444C51.4186 23.8465 27.1412 23.8623 12.5591 38.4444C11.4435 39.56 11.9934 40.9899 12.8577 41.8542L18.2788 47.2753C19.1273 48.1239 20.5416 48.1239 21.3901 47.2753Z" fill="white"/>
</g>
<defs>
<clipPath id="clip0_260_61">
<rect width="53.3333" height="53.3333" fill="white" transform="translate(77 40) rotate(135)"/>
</clipPath>
</defs>
</svg>
